<?xml version="1.0" standalone="no"?>
<!DOCTYPE svg PUBLIC "-//W3C//DTD SVG 20010904//EN"
 "http://www.w3.org/TR/2001/REC-SVG-20010904/DTD/svg10.dtd">
<svg version="1.0" xmlns="http://www.w3.org/2000/svg"
 width="300.000000pt" height="300.000000pt" viewBox="0 0 300.000000 300.000000"
 preserveAspectRatio="xMidYMid meet">
<metadata>
Created by potrace 1.10, written by Peter Selinger 2001-2011
</metadata>
<g transform="translate(0.000000,300.000000) scale(0.100000,-0.100000)"
fill="#000000" stroke="none">
<path d="M932 2528 c-8 -8 -12 -60 -12 -168 l0 -156 -115 -174 -115 -175 0
-655 c0 -704 -1 -684 53 -724 28 -21 33 -21 757 -21 724 0 729 0 757 21 54 40
53 20 53 724 l0 655 -115 175 -115 174 0 156 c0 108 -4 160 -12 168 -17 17
-1119 17 -1136 0z m1098 -173 l0 -135 -530 0 -530 0 0 135 0 135 530 0 530 0
0 -135z m23 -175 c4 -15 0 -20 -14 -20 -21 0 -26 25 -6 33 6 3 13 6 13 6 1 1
4 -8 7 -19z m-69 -47 c-9 -16 -51 -79 -92 -140 l-75 -113 -519 0 c-286 0 -518
3 -516 8 2 4 42 67 90 140 l87 132 522 0 521 0 -18 -27z m164 -135 c39 -61 72
-113 72 -117 0 -4 -283 -5 -338 -1 -2 0 9 17 25 38 16 20 56 79 89 130 48 77
61 91 69 77 5 -9 43 -66 83 -127z m-280 -140 c-6 -16 -36 -34 -44 -25 -9 9 15
37 33 37 8 0 13 -5 11 -12z m-63 -458 l0 -419 -35 34 c-91 88 -239 115 -352
63 -31 -15 -104 -58 -163 -97 -141 -94 -160 -94 -222 -1 -60 89 -171 173 -255
194 l-28 6 0 320 0 320 528 0 527 0 0 -420z m445 -23 l0 -443 -47 -46 c-27
-26 -65 -54 -85 -63 l-38 -15 -2 447 c-3 440 -3 448 -23 448 -20 0 -20 -8 -23
-448 l-2 -448 -23 7 c-42 13 -82 36 -114 67 l-33 31 0 453 0 453 195 0 195 0
0 -443z m-1435 -278 c58 -27 138 -99 180 -162 77 -114 134 -115 293 -4 155
109 232 133 335 103 42 -12 71 -30 117 -72 l60 -56 0 -184 c0 -178 -1 -183
-22 -198 -20 -14 -84 -16 -503 -16 -419 0 -483 2 -503 16 -22 15 -22 17 -22
305 0 188 4 289 10 289 6 0 31 -10 55 -21z m1451 -236 c-11 -11 -17 4 -9 23 7
18 8 18 11 1 2 -10 1 -21 -2 -24z m-414 -15 c-9 -9 -12 -7 -12 12 0 19 3 21
12 12 9 -9 9 -15 0 -24z m377 -320 c-18 -16 -45 -18 -205 -18 -183 0 -185 0
-174 20 7 13 10 73 8 160 -2 77 -2 140 -1 140 1 0 24 -14 50 -30 26 -17 65
-33 85 -37 38 -6 38 -6 38 -55 l0 -49 -65 -30 c-49 -22 -65 -34 -65 -49 0 -33
24 -33 89 -1 l61 31 61 -31 c65 -32 89 -32 89 1 0 14 -17 28 -60 50 l-60 30 0
48 0 48 45 12 c25 7 62 27 83 46 l37 35 3 -152 c3 -145 2 -153 -19 -169z
m-153 271 c3 -6 0 -17 -8 -25 -13 -13 -16 -13 -28 1 -12 14 -11 18 1 26 19 12
26 11 35 -2z"/>
<path d="M829 1539 c-18 -18 -19 -32 -17 -147 l3 -127 25 0 25 0 3 118 c2 108
4 117 22 117 18 0 20 -9 22 -117 3 -106 5 -118 22 -121 30 -6 36 16 36 131 0
100 1 107 20 107 18 0 20 -8 22 -117 3 -106 5 -118 22 -121 30 -6 36 16 36
141 0 153 -2 156 -130 156 -77 0 -94 -3 -111 -20z"/>
<path d="M1155 1548 c-3 -8 -4 -75 -3 -149 3 -126 4 -134 23 -134 19 0 20 7
20 145 0 130 -2 145 -18 148 -9 2 -19 -3 -22 -10z"/>
<path d="M1286 1545 c-3 -9 -6 -66 -6 -126 0 -104 1 -111 25 -135 22 -22 32
-25 93 -22 64 3 67 4 67 28 0 24 -3 25 -62 28 l-62 3 -3 117 c-3 111 -4 117
-24 120 -13 2 -24 -4 -28 -13z"/>
<path d="M1555 1548 c-3 -8 -4 -75 -3 -149 l3 -134 25 0 c24 0 25 2 25 63 0
71 -3 72 63 -22 21 -31 39 -46 50 -44 31 6 23 42 -26 106 l-48 64 48 47 c36
33 47 51 43 64 -11 28 -38 20 -80 -23 -21 -22 -42 -40 -45 -40 -3 0 -5 17 -5
37 0 32 -4 39 -23 41 -12 2 -24 -3 -27 -10z m55 -118 c0 -16 -4 -30 -10 -30
-11 0 -14 43 -3 53 11 12 13 8 13 -23z"/>
</g>
</svg>
